<?xml version="1.0" encoding="utf-8"?>
<!-- Generator: Adobe Illustrator 21.0.0, SVG Export Plug-In . SVG Version: 6.00 Build 0)  -->
<svg version="1.1" id="Layer_1" xmlns="http://www.w3.org/2000/svg" xmlns:xlink="http://www.w3.org/1999/xlink" x="0px" y="0px"
	 viewBox="0 0 316.1 444" style="enable-background:new 0 0 316.1 444;" xml:space="preserve">
<style type="text/css">
	.st0{fill:none;stroke:#000000;stroke-width:0.25;stroke-miterlimit:10;}
	.st1{fill:none;stroke:#000000;stroke-width:0.203;stroke-miterlimit:10;}
	.st2{fill:none;stroke:#FF0000;stroke-width:0.185;stroke-miterlimit:10;}
	.st3{fill:none;stroke:#000000;stroke-width:0.185;stroke-miterlimit:10;}
	.st4{fill:none;stroke:#0003FF;stroke-width:0.185;stroke-miterlimit:10;}
	.st5{fill:none;stroke:#FF0000;stroke-width:0.25;stroke-miterlimit:10;}
	.st6{fill:none;stroke:#0003FF;stroke-width:0.25;stroke-miterlimit:10;}
	.st7{fill:none;stroke:#0003FF;stroke-width:0.25;stroke-linecap:round;stroke-linejoin:round;stroke-miterlimit:10;}
</style>
<path class="st0" d="M10.9,17.4v411.7c0,2.2,1.8,3.9,3.9,3.9h289.8c2.2,0,3.9-1.8,3.9-3.9V17.4c0-2.2-1.8-3.9-3.9-3.9H14.8
	C12.6,13.5,10.9,15.2,10.9,17.4z"/>
<path class="st1" d="M154.5,213.2c-2.3-1.2-3.2-4.1-4.5-6.3c-1.6-2.6-4.4-5.1-4.4-8.1v-12.3h-3.7l0,12.3l-0.3,0v0
	c-5.3,0-10-0.4-12.8-0.6c-1.6-0.1-5.3-0.3-7.4-1c-4.3-1.4-7.1-2.1-11.4-3.5c-4.4-1.5-8.3-3.9-11.4-7.3c-1.4-1.5-2.5-3.3-3.6-5
	c-1.2-1.8-2.4-3.7-3.5-5.7c-0.6-1-0.9-2.2-1.4-3.3c-0.5-1-1-2.1-1.6-3c-0.9-1.5-0.9-3.1-0.4-4.7c0.2-0.8,0.9-1,1.6-0.5
	c0.7,0.4,1.4,0.9,2.1,1.4c2.7,1.8,5.6,2.7,8.7,3.3c3,0.6,5.9,0.5,8.9,0.4c3.6-0.1,6.9,0.8,9.9,2.5c1.3,0.7,2.5,1.8,3.7,2.7
	c2,1.5,3.9,3,5.9,4.4c1.5,1,3.2,1.6,5.1,1.5c1.2,0,1.5-0.4,1.2-1.6c-0.6-2.2-1.1-4.4-1.9-6.5c-0.2-0.6-1-1.1-1.6-1.6
	c-0.4-0.4-1-0.6-1.4-1c-0.2-0.2-0.4-0.4-0.6-0.6c-2.5-1.3-5-2.5-7.6-3.8c-0.4-0.2-0.7-0.4-1-0.6c-0.7-0.3-1.5-0.6-2.2-0.9
	c-0.6-0.3-1.2-0.6-1.7-0.9c-0.4-0.2-0.7-0.4-1.1-0.5c-0.4-0.1-0.8,0.1-1.2,0c-1.7-0.6-3.4-1.2-5.2-1.9c-0.3-0.1-0.5-0.3-0.7-0.4
	c-5.5-1.2-10.3-4.3-15.6-6c-2-0.6-3.9-1.3-5.8-2.2c-2.4-1.2-4.8-2.7-7.1-4.1c-0.9-0.5-1.8-1.2-2.7-1.8c-5.3-3.1-9-7.9-12.8-12.5
	c-2.1-2.5-3.9-5.2-5.8-7.9c-2-3-3.4-6.4-4.7-9.7c-1.3-3.4-2.9-6.7-3.5-10.4c-0.5-2.9-0.9-5.8-1.3-8.7c-0.6-5.6-0.4-11.1,0.3-16.7
	c0.4-3.7,1.6-7.3,2.6-10.9c0.9-3.4,1.6-6.8,2.4-10.2c0.7-2.9,1.4-5.8,1.9-8.7c0.3-1.4,0.3-2.8,0.5-4.3c0.1-0.9,0.4-1.5,1.2-2
	c0.8-0.5,1.6-0.1,1.8,0.8c1.1,4.8,0.6,9.7,0.3,14.6c-0.1,1.9-0.3,3.8-0.4,5.7c-0.4,4.6-0.9,9.2-1.1,13.9c-0.2,4.7-0.3,9.5-0.2,14.2
	c0,3,0.3,6,0.5,9c0.1,0.9,0.3,1.7,0.5,2.5c0.1,0,0.2,0,0.3,0c0.1-0.7,0.2-1.5,0.3-2.2c0.2-4.4,0.2-8.8,0.5-13.2c0.2-3,0.7-6,1.4-8.9
	c1.1-4.7,2.5-9.3,3.8-13.9c1.3-4.3,3.5-8.2,5.6-12.2c2.6-4.7,6.3-8.4,10.1-12.2c2.2-2.2,4.7-4,7.4-5.5c0.3-0.2,0.7-0.3,1.1-0.4
	c0.6-0.2,1.1-0.4,1.5,0.3c0.4,0.8,0.5,1.4-0.2,2c-1.5,1.5-3,3.1-4.5,4.6c-4,4-6.7,8.9-9.1,13.9c-1.6,3.5-2.5,7.2-3.5,10.8
	c-0.6,2.2-1.3,4.3-1.8,6.5c-0.3,1.4-0.6,2.9-0.7,4.3c-0.3,3.6-0.6,7.2-0.9,10.8c-0.1,1.4-0.1,2.8-0.1,4.2c0,1.1,0.5,1.4,1.5,0.8
	c1.3-0.7,2.6-1.5,3.8-2.4c4.1-3.1,8.1-6.5,11.4-10.5c1.9-2.3,3.4-5.1,4.7-7.8c2.2-4.6,4.7-9,8.4-12.5c1.2-1.1,2.7-2.1,4.2-2.9
	c1.3-0.8,2.7-1.3,4.1-1.9c0.6-0.3,1.4-0.4,1.8,0.4c0.5,0.7,0,1.3-0.5,1.8c-2.7,3-5.4,6.1-6.8,9.9c-1.3,3.6-2.4,7.3-2.2,11.3
	c0.1,1.5,0.6,2.2,2.2,2.1c2.6-0.2,5.3-0.4,7.9-0.8c2.9-0.4,5.7-1,8.6-1.6c2.4-0.5,4.7-1.1,7.1-1.5c0.8-0.2,1.6-0.2,2.4-0.1
	c1.4,0.1,1.9,1.4,1,2.5c-0.2,0.3-0.5,0.5-0.8,0.7c-3.1,1.6-6.2,3.3-9.4,4.6c-3.1,1.2-6.4,2-9.6,3c-2.6,0.9-5.1,1.9-7.5,3
	c-4.1,1.8-8.1,3.7-12.1,5.7c-1.6,0.8-3.1,1.7-4.5,2.8c-2.9,2.2-5.8,4.4-8.1,7.2c-2.7,3.3-4.7,7-5.6,11.2c-0.2,1-0.1,2.1,0.1,3.1
	c0.8,2.9,2.3,5.5,3.9,8c0.2,0.3,0.5,0.5,0.8,0.7c3.6,3,7.3,5.7,11.4,8c3.9,2.2,8,3.9,12.3,5.1c1.4,0.4,2.2-0.3,2.2-1.9
	c0-1.1-0.2-2.1-0.4-3.2c-0.7-3.1-0.7-6.2-0.5-9.4c0.3-3.4,0.7-6.7,0.8-10.1c0.1-3-0.3-6.1-1.2-9c-0.1-0.4-0.1-1.1,0.1-1.2
	c0.3-0.2,1-0.3,1.4-0.1c0.6,0.3,1.2,0.8,1.6,1.4c1.7,2.3,2.5,5,3.7,7.6c2,4.5,2.9,9.2,3.1,14.1c0.1,1.5,0.5,3,0.8,4.4
	c0.1,0.5,0.4,1,0.7,1.3c1.6,2,2.9,1.9,4.4-0.1c1.5-2,1.7-4.5,2.2-6.8c0.8-3.8,2.6-7.2,5.3-10.1c0.2-0.2,0.5-0.5,0.8-0.6
	c0.6-0.1,1.1,0,1.7,0c0,0.6,0.2,1.2-0.1,1.6c-1.5,2.5-1.4,5.1-0.7,7.8c0.4,1.3,0.5,2.7,0.7,4.1c0.1,0.9,0.2,1.7,0.2,2.6
	c0,2.1,0,4.1,0.1,6.2c0,0.5,0.1,1.1,0.1,1.6c0.1,0,0.3,0.1,0.4,0.1c0.4-0.7,0.7-1.4,1.1-2.1c0.7-1.1,1.4-2.3,2.2-3.4
	c0.3-0.3,1-0.7,1.3-0.6c0.4,0.3,0.9,0.9,0.9,1.4c0,1.3-0.2,2.7-0.5,4c-0.5,2.1-0.3,4,0.4,6.2c0.3-0.3,0.4-0.5,0.6-0.7
	c0.3-0.4,0.5-0.8,0.9-1.1c1.2-0.9,2.1-0.5,2.3,1c0.2,1.6,0.2,3.3,0.5,4.9c0.5,2.4,1.8,4.3,3.9,5.6c0.8,0.5,1.6,1,2,1.9
	c0.1,0.2,0.5,0.5,0.7,0.5c1-0.1,1.5,0.5,2,1.1c0.9,1,1.9,1.5,3.2,1.5c1-0.1,1.8,0.4,2.4,1.2c0.2,0.2,0.3,0.5,0.5,0.6
	c1.2,0.6,2.3,1.3,3.5,1.7c2.1,0.6,4.2,0.9,6.3,0c0.4-0.1,0.7-0.5,0.9-0.9c0.4-0.9,1-1.4,1.9-1.7c2.5-1.1,4.9-2.7,7.7-3.2
	c0.1,0,0.2,0,0.2-0.1c1.1-1.5,2.9-2,4.2-3.1c0.2-0.2,0.2-0.5,0.4-0.7c0.3-0.4,0.6-1,1-1.1c1.6-0.3,1.8-1.5,2.1-2.7
	c0.3-1.5,0.4-3,0.5-4.5c0-0.2,0-0.3,0-0.5c0.2-0.5,0.4-1.2,0.8-1.3c0.4-0.1,1,0.2,1.4,0.5c0.5,0.4,0.9,0.9,1.3,1.4
	c0.8,0.7,1.3,0.7,1.5-0.3c0.3-1.4,0.6-2.9,0.6-4.3c0-1.8-0.4-3.6-1.3-5.3c-0.4-0.6-0.4-1.3,0.2-1.8c0.6-0.5,1.4-0.3,1.8,0.2
	c1,1.1,1.9,2.3,2.8,3.5c0.2,0.3,0.4,0.7,0.6,1.1c0.1,0,0.2,0,0.3-0.1c0-0.6,0.1-1.2,0.1-1.8c-0.1-2.9-0.4-5.8-0.4-8.7
	c0-1.8,0.4-3.5,0.8-5.3c0.5-1.9,0.5-3.8,0.1-5.8c-0.1-0.5,0.2-1.3,0.6-1.8c0.1-0.1,1,0.1,1.4,0.3c2.3,1.5,3.9,3.5,4.3,6.4
	c0.2,2.2,0.8,4.3,1.2,6.4c0.3,1.4,1.1,2.7,2.3,3.5c0.7,0.5,1.6,0.8,2.5,1c0.6,0.2,1.2,0.1,1.9,0.1c0.8-2.1,1.1-4.3,1.3-6.6
	c0.2-3.6,0.3-7.3,0.7-10.9c0.4-3.8,1-7.6,2.7-11c0.6-1.3,1.7-2.5,2.6-3.6c0.7-0.8,1.3-0.6,1.7,0.3c0.3,0.6,0.5,1.4,0.3,1.9
	c-1,2.9-0.7,5.8-0.8,8.8c-0.2,3.4,0.7,6.6,1.1,9.9c0.2,2,0.5,3.9,0.7,5.9c0.2,1.5,0.3,3,0.3,4.5c0,1-0.3,2-0.3,3.1
	c0,1.3,0.1,1.5,1.4,1.5c0.7,0,1.5,0,2.2-0.3c4.7-1.9,8.9-4.7,12.9-7.8c1.6-1.2,3.2-2.6,4.8-3.9c2.6-2,4.2-4.7,5.8-7.5
	c0.6-1.1,1.2-2.2,1.7-3.4c0.2-0.6,0.4-1.2,0.3-1.8c-0.1-2-0.1-4-0.5-5.9c-0.3-1.5-1-3-1.7-4.3c-1.8-3.2-4.2-5.9-7.1-8.1
	c-4-3-8.5-5.1-13.1-7c-5.5-2.2-10.9-4.5-16.4-6.7c-5.4-2.2-10.8-4.4-16.2-6.5c-3.2-1.3-5.7-3.5-8.1-6c-0.5-0.6-0.8-1.4-0.3-2.1
	c0.5-0.8,1.2-0.8,2-0.5c2.9,0.9,5.8,1.8,8.7,2.5c3.1,0.8,6.2,1.5,9.2,2.3c2.4,0.6,4.9,1.1,7.3,1.7c0.4,0.1,0.8,0.1,1.2,0.1
	c1.7,0,2.1-0.5,1.8-2.2c-0.5-3.2-2.1-6.1-3.7-8.8c-1.4-2.3-2.9-4.5-4.5-6.6c-0.9-1.2-1.9-2.2-2.9-3.3c-0.5-0.6-1-1.3-1.3-2
	c-0.5-1-0.1-1.6,1-1.8c1.5-0.2,2.8,0.2,4,1c6,3.6,11.1,8.1,14.6,14.3c2.4,4.2,5.6,7.7,9.3,10.9c2.9,2.5,6,4.9,9.5,6.5
	c1,0.5,2,0.9,3.1,1.3c2.2,0.9,4.9-0.6,5.1-3.1c0.2-2.8,0.3-5.6,0-8.3c-0.5-5.2-1.3-10.4-2.1-15.6c-0.6-3.9-1.9-7.6-3.5-11.2
	c-1.6-3.7-3.3-7.3-5.5-10.7c-1.2-1.8-2.6-3.4-4-5.1c-0.7-0.9-1.5-1.8-2.2-2.8c-0.3-0.4-0.4-1.2-0.2-1.6c0.1-0.3,1-0.6,1.4-0.5
	c1.4,0.3,2.7,0.6,4,1.1c3.1,1.3,5.4,3.6,7.2,6.2c4.1,6,7.6,12.3,10,19.2c1.3,3.8,2.3,7.7,3.2,11.6c1.1,5,2,9.9,2.8,14.9
	c0.9,5.6,1.1,11.3,0.8,17c-0.2,2.7,0.1,5.5,0.2,8.2c0,0.7,0.1,1.5,0.1,2.2c0.1,0,0.2,0,0.3,0.1c0.2-0.4,0.5-0.8,0.6-1.2
	c1.1-3.4,2.2-6.7,3.2-10.1c0.8-3.1,0.9-6.4,0.9-9.6c0-1.9,0.3-3.9,0.2-5.8c-0.1-2.5-0.5-5.1-0.8-7.6c-0.4-3-0.8-6.1-1.2-9.1
	c-0.4-3.6-0.8-7.2-1.2-10.8c-0.3-2.6-0.6-5.2-0.9-7.8c0-0.3-0.1-0.6,0-0.8c0.1-0.5,0.4-0.9,0.5-1.3c0.4,0.2,1,0.3,1.3,0.6
	c1,1.3,1.8,2.6,2.7,3.9c1.7,2.8,2.3,6,3,9.1c1.2,5,2.5,10,3.6,15c0.7,3.3,1.1,6.6,1.6,10c0.3,2.8,0.7,5.6,0.7,8.4
	c-0.2,6.3-0.8,12.5-3.1,18.5c-1.1,2.8-2.2,5.6-3.3,8.4c-0.2,0.6-0.8,1-1.3,1.5c-0.2,0.3-0.5,0.5-0.7,0.8c-0.7,1.4-1.2,2.9-2.1,4.1
	c-2.6,3.5-5.1,7.1-8.5,9.9c-2.1,1.7-4.4,3.3-6.4,5.1c-3.2,2.7-7,4.3-10.5,6.5c-4,2.4-8.2,4.8-12.3,7.1c-2.4,1.4-4.9,2.6-7.4,3.9
	c-2.3,1.2-4.5,2.4-6.8,3.6c-1.9,0.9-3.8,1.8-5.7,2.7c-0.2,0.1-0.4,0.2-0.5,0.3c-0.6,0.9-1.3,1.6-2.6,1.2c-0.1,0-0.3,0.1-0.5,0.1
	c-1.4,0.7-2.7,1.5-4.1,2.3c-0.2,0.1-0.4,0.4-0.6,0.6c-0.2,0.2-0.5,0.6-0.7,0.6c-1.5-0.1-2.5,1.3-3.9,1.4c-0.3,0-0.7,0.5-0.9,0.8
	c-0.6,1.3-1.6,1.9-2.9,2.1c-0.3,0-0.6,0.2-0.7,0.4c-0.4,0.6-0.7,1.2-1,1.8c-0.2,0.3-0.4,0.6-0.5,0.9c-0.2,1.6-0.4,3.1-0.5,4.7
	c-0.1,1.3,0.3,1.3,1.5,1.2c3.9-0.4,6.5-3,9.3-5.2c3.2-2.6,6.5-4.8,10.5-5.6c0.9-0.2,1.9-0.2,2.8-0.1c3.8,0.7,7.4-0.1,10.9-1.6
	c2.5-1.1,4.8-2.5,6.6-4.6c0.3-0.3,0.7-0.6,1-0.8c1-0.7,1.7-0.4,1.8,0.8c0.2,1.7,0,3.3-0.8,4.8c-1.5,3-3.2,6-4.7,9
	c-1.1,2.1-2.4,3.9-4.2,5.5c-2.1,1.9-4.4,3.7-6.5,5.6c-1.3,1.1-2.6,2.4-3.9,3.5c-1.5,1.3-2.9,2.3-4.8,2.7c-0.7,0.1-3.1,0.7-3.8,0.9
	c-3,0.9-3.1,1.9-6.1,2.2c-0.9,0.1-2.3,0.7-3.2,0.9l-1.2,0.4c-0.8,0.2-1.8,0.4-3.1,0.4h-9.3v-12.3h-3.7v12.3c0,3-2.6,5.7-4.3,8.3
	c-1.5,2.3-2.8,5.1-5.3,6.2C162.7,214.9,158,215,154.5,213.2z"/>
<ellipse transform="matrix(0.9659 -0.2589 0.2589 0.9659 -77.59 52.5597)" class="st2" cx="160.7" cy="320.8" rx="4.7" ry="4.7"/>
<path class="st3" d="M159.9,416.8c-3.6-4.7-8.7-6.5-14-8c-3.7-1-7.5-1.9-11.1-3.1c-3.5-1.2-6.1-3.4-6.8-7.2
	c-0.4-2.5-1.7-3.8-3.9-4.8c-5.8-2.8-9.2-7.8-10.6-13.9c-0.9-3.8-1.1-7.8-1.6-11.7c-0.3-2-0.8-4-1-6c-0.1-0.4,0.3-1.1,0.7-1.4
	c5.1-3.3,8.7-7.6,9.4-13.9c0.5-4.1,0.6-8.2-0.7-12.3c-1.2-3.6-3.4-6.5-6.1-9.1c-0.3-0.2-0.4-0.8-0.3-1.2c0.2-0.8,0.5-1.7,1-2.4
	c3.3-4.2,3.4-8.8,2.4-13.8c-0.7-3.6-0.7-3.7,2.6-4.9c3.7-1.3,5.9-4.5,8.5-7.1c3.4-3.4,6.9-6.6,11.9-7.3c0.8-0.1,1.7-0.2,2.5-0.2
	c3.9,0,7.4,1.4,10.5,3.7c4.8,3.6,9.8,3.6,14.6-0.1c6.9-5.3,15.1-5,21.8,0.9c1.9,1.7,3.8,3.4,5.4,5.3c2.2,2.5,4.8,4.1,7.9,5.1
	c1.2,0.4,1.5,0.9,1.3,2.2c-0.4,2.8-0.9,5.8-0.7,8.6c0.2,2.2,1.5,4.4,2.4,6.5c0.1,0.2,0.2,0.3,0.3,0.5c1.7,2.7,1.7,3-0.5,5.2
	c-5.4,5.5-6.2,12.3-5.4,19.5c0.7,6.4,4.2,10.8,9.4,14.3c0.5,0.3,0.9,1.1,0.8,1.7c-0.6,5.3-1.1,10.7-2.1,16
	c-1.4,7.8-5.7,13.6-13.1,16.8c-0.3,0.1-0.8,0.6-0.8,0.9c-1,8-6.9,10.2-13.5,12c-4.7,1.3-9.3,2.8-13.7,4.7c-2,0.9-3.5,3-5.3,4.4
	C161.6,417,160.1,417.1,159.9,416.8z"/>
<path class="st4" d="M161,412.4l-1.5-1.6l-0.1-0.1c-3.9-3.1-8.4-4.5-12.4-5.7c-3.9-1.1-7.4-1.9-10.9-3.1c-2.5-0.9-3.8-2.2-4.2-4.2
	c-0.7-3.9-3-6.2-6.1-7.7c-4.6-2.2-7.3-6-8.5-11.2c-0.8-3.7-0.9-7-1.6-11.4c-0.2-1.4-0.4-2.3-0.6-3.2l-0.2-1.4l2.7-2.1l0.1,0
	c3.7-3.4,6.5-7.8,7.2-13.6c0.5-4.3,0.7-9.1-0.9-13.9c-0.7-2.2-1.8-4.2-3-6l-0.1-0.1l-2.9-3.3l2.3-3.9c1.8-4.3,1.5-8.7,0.7-12.8
	l-0.1-0.4l0.2-0.1c4.8-1.7,8-6,9.9-8c3.4-3.4,6.1-5.7,9.7-6.2l2-0.2l4.3,0.8l3.9,2.2c6.2,4.7,13.2,4.6,19.4-0.1
	c5.4-4.1,11.5-3.9,16.8,0.7c1.8,1.6,3.5,3.2,5,4.9c1.3,1.6,2.9,2.9,4.5,3.9l0.1,0.1l3.5,1.6l-0.4,3c-0.2,1.6-0.3,3.3-0.1,5.1
	c0.3,2.9,2.1,6.4,2.6,7.6l0.1,0.4l0.5,0.8l0,0l0.1,0.2l-0.1,0.1c-6.6,6.7-7.4,14.9-6.5,22.7c0.7,5.9,3.3,10.4,7.1,13.9l0.1,0.1
	l2.9,2.3l-1.9,14.5l-1.3,4.6c-1.8,4.2-4.9,7.3-9.5,9.3c-1,0.4-2.9,1.7-3.2,4c-0.6,5.2-4,6.9-10.6,8.7c-4.8,1.3-9.6,2.9-14.2,4.9
	c-1,0.4-2,1.2-3,2L161,412.4z"/>
<path class="st5" d="M120.1,237.7c0.2-0.7-0.4-1.4-0.5-2.1c0-0.6,0.2-1.1,0.2-1.7c0.1-1.1,0.6-2.4,0.1-3.4c-0.6-1.2-2-1.9-3.2-2.2
	c-1.4-0.4-2.9,0.4-4.3,0.5c-0.5,0-1.1,0.2-1.6,0c-0.5-0.2-0.6-1.2-1.1-1c-0.8,0.2-0.7,1.6-0.5,2.4c0.2,0.8,1.2,1.2,1.6,1.9
	c0.4,0.7,0.3,1.6,0.7,2.3c0.9,1.5,2.3,2.8,3.8,3.6c1.1,0.6,2.5,1.4,3.7,1C119.5,238.8,120,238.3,120.1,237.7"/>
<path class="st4" d="M157.3,109.7c1.3-2.7-1.4-2.4-2.3-3.4c-0.7-0.7-1.3-2.3-2.3-1.9c-1.7,0.7-1.1,3.7,0.1,4.9
	C153.8,110.2,156.7,110.9,157.3,109.7z"/>
<path class="st4" d="M168.9,109.3c1.3-1.2,1.8-4.3,0.1-4.9c-1-0.4-1.7,1.2-2.3,1.9c-0.9,1-3.6,0.7-2.3,3.4
	C165,110.9,167.9,110.2,168.9,109.3z"/>
<rect x="141.9" y="313.1" class="st5" width="3.7" height="15.4"/>
<rect x="175.8" y="313.1" class="st5" width="3.7" height="15.4"/>
<rect x="141.9" y="376.1" class="st5" width="3.7" height="15.4"/>
<rect x="175.8" y="376.1" class="st5" width="3.7" height="15.4"/>
<ellipse transform="matrix(0.9659 -0.2589 0.2589 0.9659 -55.8221 49.6937)" class="st6" cx="160.7" cy="236.8" rx="12.7" ry="12.7"/>
<path class="st7" d="M151,229c6.5,0,13-0.1,19.5-0.1"/>
<path class="st7" d="M160.7,228.9c0,6.8,0,13.6,0,20.5"/>
<path class="st7" d="M165.5,234.1c-0.9-1.9-2.9-2.3-4.9-2.3c-2.3,0-4.1,0.8-4.2,3.1c-0.2,2.6,2.6,3.4,4.6,3.6
	c2.4,0.3,4.8,1.3,4.8,3.7c-0.1,2.6-2.6,3.5-5,3.4c-1.9-0.1-4.2-0.6-5.2-2.4"/>
<path class="st0" d="M40.9,329.9v-13.5h-5v-15.9h5v-47.1h-5v-15.9h5v-14.9c2-2.3,3.9-3.5,6.4-3.5c0.2,0,0.4,0,0.7,0
	c0.1,0,0.2-0.1,0.4-0.2c-0.3-0.4-0.5-0.8-0.9-1.4c1.5-0.1,2.8-0.2,4-0.3c-0.1-0.2-0.2-0.3-0.4-0.5c1.2-0.8,2.5-1.7,3.7-2.5
	c-0.1-0.2-0.1-0.3-0.2-0.5c0.7,0.2,1.3,0.5,2,0.7c-0.1-0.2-0.1-0.4-0.2-0.5c6-2.9,12-5.7,18-8.6c4.4-2.2,10.3-4,15.6-6.2l9.9-0.9
	l0.3,0.1L95.7,210l3.4,1.3l4.7-12.5l0.3,0.1l3.1,0.6l0,0c3,0.6,5.7,1.6,7.9,4.8c1.4,2,7.3,6,8.3,8.2c1.9,4.2,3.6,9.5,5.6,13.6
	c1.4,2.9,0.6,7.1,2.2,9.8c3.1,5.4,6.6,10.6,9.8,15.9c2.9,4.8,5.8,9.7,8.6,14.6c0.6,1.1,1.2,2.3,1.3,3.6c0.5,4.3-1.5,7.7-4.4,10.7
	c-1.6,1.7-3.5,2.7-6,2.2c-0.7-0.1-1.5,0.2-2.2,0.4c-2.5,0.7-4.9,1.6-7.4,2.1c-2.8,0.6-5.5,0.2-7.3-2.2c-2.3-3-5.1-5.5-8.4-7.4
	c-0.9-0.5-1.6-1.4-2.5-1.9c-1.7-1.2-3.4-2.6-5.3-3.2c-2.9-0.9-6-1.2-9,0c-9.5,3.7-10.5,4.7-13.8,14.5c-0.7,2.1-1.5,4.1-2.3,6.2
	c-0.5-0.3-1.1-0.6-1.7-1c-0.7,3.6-1.4,7-2.1,10.5c-0.5-0.3-1-0.6-1.3-0.8c-0.3,0.6-0.6,1.1-0.9,1.6c-0.7-0.7-1.4-1.3-2.1-2
	c-2.5,0.9-2.8,3.6-3.7,5.7c-1.9,4.5-3.4,9.2-5.1,13.8c-0.2,0.5-1.5,1.2-1.7,1c-1.9-1.4-2.8-0.2-3.3,1.3c-0.5,1.2-1.1,1.5-2.2,1
	c-0.5-0.2-1-0.3-1.4-0.4C52.4,326.6,46.8,328.5,40.9,329.9z"/>
<path class="st0" d="M160.2,165.6c-0.2-2.1-1-4.1-2-5.8l-4.8-8.3l-0.4,3.3c-0.1,0.5-1.4,0.5-1.6,0.1c-0.9-1.9-2.5-5.4-3.4-7.5
	c-0.9-2.1-1.3-3.9-1.3-6v-6.1h-5v-10.7h5V118c-0.1-0.9,0.9-1.4,1.3-0.8l3.3,2.5l6.8,1.9l9.4-0.9l5.4-2.2l0.6-0.7
	c0.3-0.4,1.3-0.4,1.3,0.5v6.3h5v10.7h-5v6.3c0,2.2-0.3,4.4-0.8,6.6c-0.6,2.3-1.5,5.2-2.4,6.7c-0.5,0.7-1.4,0.4-1.4-0.5
	c0-1.2,0-4.5-0.3-5.6c-1.3,7-4.1,12.6-7.6,17.4C161.5,167,160.3,166.7,160.2,165.6z"/>
<rect x="69.4" y="278.5" transform="matrix(0.4415 -0.8973 0.8973 0.4415 -210.0355 223.153)" class="st5" width="9.6" height="3.7"/>
<path class="st0" d="M159.4,118.6c-0.6-1.7-1.9-3.2-4-4.3c-2-1-5-0.1-6.7-1.4c-1.3-1-1.8-2.5-1.9-4.2h-5v-7.3h5l0-1h0
	c0.4-4.2,6.2-5.3,9-3.8c1.1,0.5,2.1,1.3,3.1,2.4h4.2c0.9-0.9,1.8-1.6,2.6-2.1c2.6-1.7,8.5-1,9.1,3.6h0.1l0,1h5v7.3h-5.1v0
	c-0.2,1.4-0.9,3.3-2.4,3.7l-6.9,1.9c-1.9,0.5-3.9,2.6-4.4,4.1C160.7,119.6,159.3,119,159.4,118.6z"/>
<rect x="139.2" y="272.4" transform="matrix(0.4681 -0.8837 0.8837 0.4681 -166.4667 271.9328)" class="st5" width="6.8" height="3.7"/>
<path class="st0" d="M146.7,94.8V84.1h-5V73.5h5V39.9h-5V29.3h5v-4.9h1c2,0.1,3.5,3,4.4,5.2c0.8-1.3,1.1-2.7,0.7-4.2
	c2.8,0.8,5.5,1.6,5.3,7.1c1.6-1.1,2.6-2.8,2.7-5.2c1.5,0.3,2.5,1.1,2.7,2.7c1.4-0.6,2.6-1.8,2.9-3.6c2.5-1.4,5.1-2.2,8-2.1v4.9h4.9
	v10.7h-4.9v33.5h4.9v10.7h-4.9v10.7l-1.8-0.9l-3.1-0.8l-1.5-1.8l-3-2.6l-2.1-1.7l-4.7,0l-3.3,1.5l-2.7,2.8l-1.3,1.5l-4.1,1.8H146.7z
	"/>
<path class="st7" d="M38.6,367c0.9,0.6,0.6,2.3-0.2,2c-0.4-0.2-0.4-1,0.3-1.1c0.6,0,1.6,0.1,1.6,1.2c0,1.1-1,2.3-2.3,2
	c-1.6-0.3-2.3-2.7-1.8-4.2c0.7-1.9,2.9-3.2,4.7-3c2,0.2,3.2,2,3.5,3.7c0.4,1.5,0.5,3.1,0.5,4.7c0,0.9,0.1,1.9-0.3,2.7
	c-0.2,0.5-0.9,1.1-1.5,1c-0.5-0.1-1-0.7-1-1.2c0-1.6,0.7-3.1,1.3-4.4c0.8-2.1,1.8-3.9,3.2-5.3c0.6-0.5,1.2-1.1,1.9-1
	c0.8,0.2,1.1,1.1,1.1,1.9c0.1,1.8,0.1,2.9-0.1,4.6c-0.1,1.5-0.1,2.8-0.2,4.2c0,0.4,0,0.9-0.2,0.8c-0.2-0.1-0.1-0.1-0.1-0.3
	c0.1-0.6,0.2-1.4,0.4-2.1c0.3-1.5,0.7-3.1,1.3-4.3c0.5-0.9,0.8-1.7,1.5-2.4c0.5-0.6,1.3-1.3,2.1-1.4c0.6,0,1.2,0.7,1.2,1.3
	c-0.1,1.3-0.1,2-0.4,3.2c-0.3,1.3-0.7,4.6-0.4,5.2c0.3,0.7,0.9,1,1.4,1c1.3,0.1,2.5-1.1,3.5-2c0.7-0.6,1.3-1.2,1.6-1.9
	c0.2-0.4,0.3-0.9,0.2-1.3c-0.1-0.5-0.7-0.8-1.1-0.7c-1.1,0.4-1.8,1.8-1.8,3c-0.1,0.9,0.4,2.1,1.2,2.5c1.1,0.6,2.5,0,3.4-0.8
	c1.1-1,1.9-2.2,2.4-3.5c0.2-0.6,0.6-1.2,0.5-1.7c0-0.4-0.6-0.8-1-0.8c-0.5,0-1.2,0.6-1.1,1.2c0.1,0.9,1.4,1.5,2.5,1.3
	c0.7-0.1,1.1-0.3,1.3,0c0.2,0.4-0.4,1.5-0.6,2.1c-0.5,1.5,0,2,1.1,2.1c1.6,0.1,2.7-1.8,3.5-3.2c0.7-1.3,1.3-2.1,1.2-2.8
	c-0.1-0.5-0.7-0.8-1.2-0.8c-0.7,0-1,0.7-0.9,1.3c0.1,0.6,0.6,1,1.2,1.2c0.8,0.2,2-0.3,2.4,0.2c0.2,0.3-0.4,1.4-0.6,2.1
	c-0.2,0.9-0.3,1.6,0.4,1.9c1.2,0.6,2.4-0.3,2.8-1.3c0.4-1,0.9-2.5,1-3.4c0-0.2,0.1-0.4-0.1-0.5c-0.2-0.1-0.3,0.3-0.3,0.5
	c-0.3,1.5-0.7,3.2,0,4.4c0.1,0.3,0.7,0.4,0.9,0.3c0.9-0.2,1.5-1,2-1.7c0.5-0.7,0.8-1.6,1-2.5c0.1-0.3,0.2-0.6,0.2-0.8
	c0-0.1,0-0.4-0.2-0.3c-0.2,0-0.2,0.4-0.2,0.6c0,1.5,0,3-0.1,4.8c-0.1,1.2-0.3,2.4-0.7,3.8c-0.3,1.1-1.2,2.4-2.4,2.5
	c-0.7,0.1-1.3-0.5-1.3-1.1c0.1-0.9,0.9-1.7,1.7-2.3c1.2-0.9,2.5-1.5,3.7-2.4c1.2-0.8,2-1.8,2.5-2.6c0.5-0.8,1.2-1,1.5-0.7
	c0.3,0.2,0.2,0.6,0,0.9c-0.3,0.6,0.1,1.2,0.8,0.8"/>
<path class="st7" d="M38.2,379.1c-1.3-1-2,1.2-0.4,1.3c0.8,0,1.2-0.9,1.2-1.8c0-1.1-0.9-1.9-2-1.9c-3.2,0.1-5.1,4.1-4.9,6.8
	c0.1,2.7,2.5,5.7,5.2,5.5c2.7-0.2,3.5-1.8,4.6-3.7c1.2-2.1,2.3-4.3,2.5-5.8c0.1-0.6-0.2-1.4-1-1.4c-1.7,0-1.8,3.8-1.9,6.1
	c-0.1,2.9,0.1,3.4,0,4.7c0,0.1-0.1,0.2-0.1,0.2c-0.1,0-0.2-0.2-0.1-0.3c0.4-0.8,1-2.2,1.6-3.1c1.1-1.6,1.6-2.5,2.4-2.4
	c0.5,0.1,0.4,0.9,0.4,1.6c-0.1,1-0.2,2.1-0.1,2.7c0.1,0.4,0.5,0.7,0.9,0.7c1.5,0.3,2.7-1.8,3.5-3c0.8-1.4,1.3-2.3,1.3-2.9
	c-0.1-0.4-0.6-0.8-1-0.8c-0.6-0.1-1.2,0.5-1.1,1.1c0,0.6,0.4,0.8,0.7,1c0.5,0.3,1.2,0.4,1.9,0.3c0.3,0,0.8-0.1,1,0.1
	c0.4,0.3-0.1,1.6-0.4,2.4c-0.4,1.2,0.1,1.8,1,1.8c0.9,0,2-0.7,2.3-1.5c0.5-1.6,0.6-2,0.8-2.7c0.1-0.5,0.2-1.3-0.1-1.3
	c-0.2,0-0.3,0.3-0.3,0.6c-0.2,1-0.2,2.2-0.2,2.9c0,0.9,0.2,1.8,0.9,2c1.1,0.4,1.9-0.7,2.5-1.5c1.1-1.4,2-2.7,2.5-3.8
	c0.2-0.5,0.3-1.2-0.2-1.4c-0.4-0.3-1.1-0.3-1.5,0.1c-0.3,0.3-0.4,0.9-0.2,1.3c0.6,1.2,1.9,1.5,2.6,2.3c0.4,0.4,0.6,0.9,0.6,1.4
	c0,1-0.6,1.7-1.4,1.7c-0.5,0-1.2-0.4-1.2-0.9c0-0.6,0.6-0.9,1.1-0.8c1,0.1,2,1,2.9,0.7c0.8-0.2,1.5-0.7,1.8-1.3"/>
<path class="st7" d="M67.3,379.5c-0.7,2.3-0.9,4.7-1,7.1c0,1.2,0.4,1.8,1.1,2c1.1,0.2,2.2-0.8,2.6-2.2c0.2-0.9,0.4-1.9,0.3-2.9
	c0-0.2,0-0.4-0.2-0.4c-0.2,0-0.2,0.3-0.2,0.5c0,0.3,0,0.6,0,0.9c0,1.5,0,2.8,0.2,4.3c0,0.1-0.1,0.3-0.2,0.3c-0.2,0-0.2-0.2-0.2-0.3
	c0.2-1.7,1.1-3.4,2.1-4.7c0.4-0.5,1.1-0.9,1.7-0.7c0.7,0.1,0.6,1.1,0.5,1.9c-0.1,0.7-0.2,1.6-0.1,2c0,0.3,0.1,0.5,0.1,0.8
	c0,0.2-0.1,0.4-0.2,0.3c-0.3,0-0.1-0.7,0-1.1c0.3-1,1-2.1,1.6-2.9c0.3-0.4,0.7-0.8,1.1-0.9c0.8-0.3,0.9,0.5,0.8,1.3
	c-0.1,1-0.4,2.8-0.1,3.4c0.1,0.3,0.6,0.6,1,0.5c0.9,0,1.8-1,2.2-1.5"/>
<path class="st7" d="M83.2,385.5c0.3-0.6,0.4-1.2,0.3-1.9c0-0.4-0.5-0.6-0.9-0.7c-1.1-0.1-2.1,1.2-2.3,2.4c-0.1,0.9-0.3,2.7,0.7,3.1
	c1.5,0.5,2.4-2,2.9-3.2c0.2-0.5,0.6-1.2,0.8-1.6c0.1-0.2,0.1-0.4,0-0.5c-0.1-0.1-0.3,0.2-0.3,0.3c-0.3,0.9-0.5,2-0.6,3
	c0,0.6,0,1.4,0.4,1.9c0.2,0.3,0.7,0.4,1,0.3c0.9-0.2,2.5-2.2,3.1-3.1c0.7-1,1.2-1.8,1.3-2.3c0.2-1.1-0.3-1.4-0.9-1.4
	c-0.9,0-1.3,0.8-1,1.6c0.4,1,1.6,1.3,2.5,2c0.4,0.3,0.8,0.8,0.8,1.5c0,0.6-0.3,1.2-0.8,1.5c-0.4,0.3-1.1,0.3-1.4,0
	c-0.3-0.2-0.3-0.6-0.2-0.9c0.2-0.3,0.5-0.4,1-0.4c0.9,0.1,2.3,0.9,3.3,0.5c0.6-0.2,1.1-0.9,1.4-1.4c0.6-1.1,1.7-0.8,1.8,0.1
	c0,0.5-0.5,0.5-0.7,0.3c-0.2-0.2-0.1-0.5,0.1-0.5c0.3-0.1,0.7-0.1,1,0.1"/>
<path class="st7" d="M65,382.1c1.4,0.2,2.8,0,4.2-0.3"/>
<path class="st7" d="M57.2,380.4c-0.1-0.4-0.4-0.6-0.6-0.6c-0.6,0.1-0.9,1-0.3,1.2c0.3,0.1,0.9,0,0.7-0.5"/>
<path class="st7" d="M30.3,395.2c0.7-0.8,1.6-0.1,1.4,0.7c-0.1,0.5-0.4,0.7-0.9,0.6c-0.2,0-0.6-0.2-0.8-0.3
	c-11.6-6.2-5.2-22.9-4.4-29c0.2-1.2-0.8-2.2-2-2.1c-0.8,0.1-1.3,0.7-1.5,1.4c-0.1,0.8,0.3,1.6,1.7,1.8"/>
<path class="st7" d="M44,406.9c0.1-1,1.3-0.9,1.5-0.1c0.1,0.4,0,0.7-0.5,0.9c-0.1,0.1-0.6,0.1-0.7,0.1c-12.2,0.4-14.9-16.1-17-21.3
	c-0.4-1-1.7-1.5-2.6-0.8c-0.6,0.4-0.8,1.2-0.5,1.8c0.2,0.7,0.9,1.1,2.2,0.7"/>
<path class="st7" d="M60.2,414.7c-0.4-1,0.7-1.5,1.3-0.9c0.3,0.3,0.4,0.7,0.1,1.1c-0.1,0.1-0.5,0.4-0.6,0.5
	c-11.1,7-22.4-7-27.3-10.7c-1-0.7-2.3-0.5-2.8,0.6c-0.3,0.7-0.1,1.5,0.5,2c0.6,0.5,1.5,0.5,2.4-0.6"/>
<path class="st7" d="M77.1,408.7c-0.8-0.6-0.1-1.5,0.7-1.3c0.4,0.1,0.6,0.4,0.6,0.9c0,0.2-0.2,0.6-0.3,0.7
	c-5.8,10.8-21.3,4.8-27,4.1c-1.1-0.1-2.1,0.7-2,1.8c0.1,0.7,0.7,1.2,1.3,1.4c0.7,0.1,1.5-0.3,1.7-1.6"/>
<path class="st7" d="M92,398.6c-1.1-0.1-0.9-1.3-0.1-1.6c0.5-0.1,0.8,0,1,0.5c0.1,0.1,0.1,0.6,0.1,0.8c0.5,13.1-17.2,15.9-22.9,18.3
	c-1.1,0.5-1.6,1.8-0.8,2.8c0.4,0.6,1.3,0.8,1.9,0.6c0.7-0.2,1.2-1,0.7-2.4"/>
<path class="st7" d="M95.3,380.9c-0.9,0.4-1.4-0.6-0.8-1.2c0.3-0.3,0.7-0.3,1-0.1c0.1,0.1,0.4,0.4,0.5,0.6
	c6.5,10.4-6.5,20.9-10,25.4c-0.7,0.9-0.4,2.2,0.6,2.6c0.7,0.3,1.4,0.1,1.8-0.4c0.5-0.5,0.5-1.4-0.5-2.2"/>
<path class="st7" d="M93.9,363c-0.7,0.8-1.6,0.1-1.4-0.7c0.1-0.5,0.4-0.7,0.9-0.6c0.2,0,0.6,0.2,0.8,0.3c11.6,6.2,5.2,22.9,4.4,29
	c-0.2,1.2,0.8,2.2,2,2.1c0.8-0.1,1.3-0.7,1.5-1.4c0.1-0.8-0.3-1.6-1.7-1.8"/>
<path class="st7" d="M80.3,351.3c-0.1,1-1.3,0.9-1.5,0.1c-0.1-0.4,0-0.7,0.5-0.9c0.1-0.1,0.6-0.1,0.8-0.1
	c12.2-0.4,14.9,16.1,17,21.3c0.4,1,1.7,1.5,2.6,0.8c0.6-0.4,0.8-1.2,0.5-1.8c-0.2-0.7-0.9-1.1-2.2-0.7"/>
<path class="st7" d="M64.1,343.5c0.4,1-0.7,1.5-1.3,0.9c-0.3-0.3-0.4-0.7-0.1-1.1c0.1-0.1,0.5-0.4,0.6-0.5c11.1-7,22.4,7,27.3,10.7
	c1,0.7,2.3,0.5,2.8-0.6c0.3-0.7,0.1-1.5-0.5-2c-0.6-0.5-1.5-0.5-2.4,0.6"/>
<path class="st7" d="M47.1,349.4c0.8,0.6,0.1,1.5-0.7,1.3c-0.4-0.1-0.6-0.4-0.6-0.9c0-0.2,0.2-0.6,0.3-0.7c5.8-10.8,21.3-4.8,27-4.1
	c1.1,0.1,2.1-0.7,2-1.8c-0.1-0.7-0.7-1.2-1.3-1.4c-0.7-0.1-1.5,0.3-1.7,1.6"/>
<path class="st7" d="M32.3,359.6c1.1,0.1,0.9,1.3,0.1,1.6c-0.4,0.1-0.8,0-1-0.5c-0.1-0.1-0.1-0.6-0.1-0.8
	c-0.5-13.1,17.2-15.9,22.9-18.3c1.1-0.5,1.6-1.8,0.8-2.8c-0.4-0.6-1.3-0.8-1.9-0.6c-0.7,0.2-1.2,1-0.7,2.4"/>
<path class="st7" d="M29,377.3c0.9-0.4,1.4,0.6,0.8,1.2c-0.3,0.3-0.7,0.3-1,0.1c-0.1-0.1-0.4-0.4-0.5-0.6
	c-6.5-10.4,6.5-20.9,10-25.4c0.7-0.9,0.4-2.2-0.6-2.6c-0.7-0.3-1.4-0.1-1.8,0.4c-0.5,0.5-0.5,1.4,0.5,2.2"/>
<rect x="134" y="250.5" transform="matrix(0.8964 -0.4433 0.4433 0.8964 -99.2279 86.6996)" class="st5" width="3.7" height="10.2"/>
<rect x="114.4" y="210.9" transform="matrix(0.8964 -0.4432 0.4432 0.8964 -83.6914 73.8978)" class="st5" width="3.7" height="10.2"/>
<path class="st6" d="M151.9,138c1.1,6,3.5,10.7,6.4,14.8c0.6,0.8,1.6,0.5,1.7-0.4c0.2-1.8,0.8-3.5,1.7-4.9l2.4-4.1"/>
<path class="st6" d="M170.7,135c-0.8,4.4-2.6,7.8-4.7,10.9c-0.4,0.6-1.2,0.4-1.2-0.3c-0.1-1.3-0.6-2.6-1.2-3.6
	c-1.8-4-3.7-7.6-5.6-10.7"/>
<path class="st6" d="M95.7,172.4c6.6,4,12.7,0.9,19,3.5c4.9,2.2,9.3,5.4,11.9,11.8"/>
<path class="st6" d="M221,174c-5.1,1.4-9.9-0.2-15,1.9c-4.8,2.2-9.1,5.4-11.6,11.8"/>
<path class="st5" d="M200.2,237.7c-0.2-0.7,0.4-1.4,0.5-2.1c0-0.6-0.2-1.1-0.2-1.7c-0.1-1.1-0.6-2.4-0.1-3.4c0.6-1.2,2-1.9,3.2-2.2
	c1.4-0.4,2.9,0.4,4.3,0.5c0.5,0,1.1,0.2,1.6,0c0.5-0.2,0.6-1.2,1.1-1c0.8,0.2,0.7,1.6,0.5,2.4c-0.2,0.8-1.2,1.2-1.6,1.9
	c-0.4,0.7-0.3,1.6-0.7,2.3c-0.9,1.5-2.3,2.8-3.8,3.6c-1.1,0.6-2.5,1.4-3.7,1C200.9,238.8,200.4,238.3,200.2,237.7"/>
<path class="st0" d="M279.5,329.9v-13.5h5v-15.9h-5v-47.1h5v-15.9h-5v-14.9c-2-2.3-3.9-3.5-6.4-3.5c-0.2,0-0.4,0-0.7,0
	c-0.1,0-0.2-0.1-0.4-0.2c0.3-0.4,0.5-0.8,0.9-1.4c-1.5-0.1-2.8-0.2-4-0.3c0.1-0.2,0.2-0.3,0.4-0.5c-1.2-0.8-2.5-1.7-3.7-2.5
	c0.1-0.2,0.1-0.3,0.2-0.5c-0.7,0.2-1.3,0.5-2,0.7c0.1-0.2,0.1-0.4,0.2-0.5c-6-2.9-12-5.7-18-8.6c-4.4-2.2-10.3-4-15.6-6.2l-9.9-0.9
	l-0.3,0.1l4.5,11.9l-3.4,1.3l-4.7-12.5l-0.3,0.1l-3.1,0.6l0,0c-3,0.6-5.7,1.6-7.9,4.8c-1.4,2-7.3,6-8.3,8.2
	c-1.9,4.2-3.6,9.5-5.6,13.6c-1.4,2.9-0.6,7.1-2.2,9.8c-3.1,5.4-6.6,10.6-9.8,15.9c-2.9,4.8-5.8,9.7-8.6,14.6
	c-0.6,1.1-1.2,2.3-1.3,3.6c-0.5,4.3,1.5,7.7,4.4,10.7c1.6,1.7,3.5,2.7,6,2.2c0.7-0.1,1.5,0.2,2.2,0.4c2.5,0.7,4.9,1.6,7.4,2.1
	c2.8,0.6,5.5,0.2,7.3-2.2c2.3-3,5.1-5.5,8.4-7.4c0.9-0.5,1.6-1.4,2.5-1.9c1.7-1.2,3.4-2.6,5.3-3.2c2.9-0.9,6-1.2,9,0
	c9.5,3.7,10.5,4.7,13.8,14.5c0.7,2.1,1.5,4.1,2.3,6.2c0.5-0.3,1.1-0.6,1.7-1c0.7,3.6,1.4,7,2.1,10.5c0.5-0.3,1-0.6,1.3-0.8
	c0.3,0.6,0.6,1.1,0.9,1.6c0.7-0.7,1.4-1.3,2.1-2c2.5,0.9,2.8,3.6,3.7,5.7c1.9,4.5,3.4,9.2,5.1,13.8c0.2,0.5,1.5,1.2,1.7,1
	c1.9-1.4,2.8-0.2,3.3,1.3c0.5,1.2,1.1,1.5,2.2,1c0.5-0.2,1-0.3,1.4-0.4C268,326.6,273.6,328.5,279.5,329.9z"/>
<rect x="244.3" y="275.5" transform="matrix(0.8973 -0.4415 0.4415 0.8973 -98.4686 137.4636)" class="st5" width="3.7" height="9.6"/>
<rect x="175.9" y="270.8" transform="matrix(0.8837 -0.4681 0.4681 0.8837 -107.697 115.0779)" class="st5" width="3.7" height="6.8"/>
<rect x="179.4" y="253.7" transform="matrix(0.4433 -0.8964 0.8964 0.4433 -126.3616 307.6836)" class="st5" width="10.2" height="3.7"/>
<rect x="199" y="214.1" transform="matrix(0.4432 -0.8964 0.8964 0.4432 -79.9624 303.2192)" class="st5" width="10.2" height="3.7"/>
<polyline class="st7" points="37.8,190.5 40.6,190 40.6,206.1 "/>
<line class="st7" x1="45.4" y1="200.5" x2="76.4" y2="200.5"/>
<path class="st7" d="M129.1,59.6h-9.9l5.8-7.1c1-1.2,1.8-2.2,2.2-2.9c0.4-0.8,0.6-1.6,0.7-2.3c0-1.2-0.3-2.2-0.9-2.8
	c-0.6-0.7-1.6-1-2.9-1c-1.4,0-2.4,0.4-3.2,1.2c-0.8,0.8-1.1,1.8-1.2,3.1"/>
<line class="st7" x1="129.1" y1="54.8" x2="144.7" y2="54.8"/>
<path class="st7" d="M119.5,101.8c0-1.3,0.4-2.3,1.3-3.1c0.9-0.8,2-1.2,3.3-1.2c1.4,0,2.4,0.4,3.2,1.2c0.8,0.8,1.2,1.8,1.2,3.1
	c0,0.8-0.3,1.6-0.8,2.2c-0.5,0.7-1.2,1.1-2.1,1.4c1,0.3,1.8,0.7,2.4,1.4c0.6,0.7,0.9,1.5,0.9,2.5c0,1.4-0.4,2.4-1.3,3.2
	c-0.9,0.8-2,1.2-3.4,1.2c-1.3,0-2.5-0.4-3.5-1.2c-1-0.8-1.5-1.9-1.5-3.4"/>
<line class="st7" x1="131.1" y1="105.1" x2="139.3" y2="105.1"/>
<polyline class="st7" points="195.5,105.9 188.5,105.9 196.2,94.1 196.9,94.1 196.9,110.3 "/>
<line class="st7" x1="176.7" y1="122.2" x2="192.4" y2="109"/>
<path class="st7" d="M279.4,192.4h-7l-0.7,7.4c0.5-0.5,1-0.8,1.5-1c0.5-0.2,1.3-0.4,2.4-0.4c1.3,0,2.3,0.4,3.1,1.3
	c0.8,0.9,1.2,2.1,1.2,3.6c0,1.6-0.4,2.9-1.1,3.9c-0.8,0.9-1.9,1.4-3.5,1.4c-1.3,0-2.3-0.4-3.2-1.1c-0.9-0.7-1.3-1.8-1.2-3.2"/>
<line class="st7" x1="248" y1="202.9" x2="267.1" y2="202.9"/>
<path class="st7" d="M247.8,161.8c0.3-0.4,0.7-0.7,1.1-1.1c0.8-0.5,1.6-0.8,2.6-0.8c1.4,0,2.5,0.4,3.3,1.3c0.8,0.9,1.2,2.2,1.2,3.8
	c0,1.5-0.4,2.7-1.3,3.6c-0.9,0.9-2,1.4-3.3,1.4c-1.4,0-2.5-0.5-3.4-1.5c-0.9-1-1.3-2.4-1.4-4.2l-0.1-4.8c0-1.6,0.4-3,1.3-4
	c0.9-1.1,2-1.6,3.4-1.6c0.6,0,1.1,0,1.7,0.2c0.6,0.1,1.1,0.3,1.5,0.6"/>
<path class="st7" d="M86.5,320.8l6.5-15.2c0-0.1,0.1-0.2,0.1-0.2c0-0.1,0-0.1,0-0.2v-0.3c0-0.1,0-0.2-0.1-0.2c0,0-0.1-0.1-0.2-0.1
	h-8.7"/>
<path class="st7" d="M231,174c8.3,0,16.7,0,25,0"/>
<line class="st7" x1="92.5" y1="313.5" x2="114.1" y2="313.5"/>
<line class="st7" x1="202.9" y1="350.8" x2="308.5" y2="350.8"/>
<line class="st7" x1="210.6" y1="370.6" x2="308.5" y2="370.6"/>
<line class="st7" x1="204.1" y1="390.5" x2="308.5" y2="390.5"/>
<line class="st7" x1="174.7" y1="410.3" x2="308.5" y2="410.3"/>
<path class="st4" d="M53.8,176.1c1.3-2.7-1.4-2.4-2.3-3.4c-0.7-0.7-1.3-2.3-2.3-1.9c-1.7,0.7-1.1,3.7,0.1,4.9
	C50.4,176.7,53.3,177.4,53.8,176.1z"/>
<path class="st4" d="M65.5,175.7c1.3-1.2,1.8-4.3,0.1-4.9c-1-0.4-1.7,1.2-2.3,1.9c-0.9,1-3.6,0.7-2.3,3.4
	C61.5,177.4,64.4,176.7,65.5,175.7z"/>
<path class="st0" d="M55.9,185.1c-0.6-1.7-1.9-3.2-4-4.3c-2-1-5-0.1-6.7-1.4c-1.3-1-1.8-2.5-1.9-4.2h-5v-7.3h5l0-1h0
	c0.4-4.2,6.2-5.3,9-3.8c1.1,0.5,2.4,1.3,3.4,2.4v7.1h3.7v-7.1c0.9-0.9,2-1.6,2.8-2.1c2.6-1.7,8.5-1,9.1,3.6h0.1l0,1h5v7.3h-5.1v0
	c-0.2,1.4-0.9,3.3-2.4,3.7l-6.9,1.9c-1.9,0.5-3.9,2.6-4.4,4.1C57.2,186.1,55.8,185.5,55.9,185.1z"/>
<path class="st7" d="M38.6,141.3c0-1.3,0.4-2.3,1.3-3.1c0.9-0.8,2-1.2,3.3-1.2c1.4,0,2.4,0.4,3.2,1.2c0.8,0.8,1.2,1.8,1.2,3.1
	c0,0.8-0.3,1.6-0.8,2.2c-0.5,0.7-1.2,1.1-2.1,1.4c1,0.3,1.8,0.7,2.4,1.4c0.6,0.7,0.9,1.5,0.9,2.5c0,1.4-0.4,2.4-1.3,3.2
	c-0.9,0.8-2,1.2-3.4,1.2c-1.3,0-2.5-0.4-3.5-1.2c-1-0.8-1.5-1.9-1.5-3.4"/>
<line class="st7" x1="41.4" y1="154.7" x2="41.4" y2="165.5"/>
<line class="st7" x1="54" y1="137" x2="54" y2="145.8"/>
<line class="st7" x1="49.6" y1="141.4" x2="58.4" y2="141.4"/>
<line class="st7" x1="50.9" y1="138.3" x2="57.1" y2="144.6"/>
<line class="st7" x1="50.9" y1="144.6" x2="57.1" y2="138.3"/>
<path class="st0" d="M275.6,172.3L275.6,172.3l3.7-7l-3.3-1.7l-3.2,6.1l0,0c-0.7-1-1.3-2.1-1.6-3.4c-1.5-5.5,1.8-11.3,7.4-12.7
	s11.3,1.8,12.7,7.4c1.5,5.5-1.8,11.3-7.4,12.7C281,174.4,278,173.9,275.6,172.3z"/>
<line class="st7" x1="282.9" y1="131.3" x2="282.9" y2="140.2"/>
<line class="st7" x1="278.5" y1="135.7" x2="287.3" y2="135.7"/>
<line class="st7" x1="279.8" y1="132.6" x2="286" y2="138.9"/>
<line class="st7" x1="279.8" y1="138.9" x2="286" y2="132.6"/>
<line class="st7" x1="282.9" y1="143" x2="282.9" y2="150.7"/>
</svg>
